<svg xmlns="http://www.w3.org/2000/svg" viewBox="4.1 59.7 188.6 64">
<g>
	<g>
			<path fill="#1A2B6B" d="M 5.6,111.6 H 7.4 V 115 L 10.6,111.6 h 2.4 l -3.4,3.5 L 13,119.9 H 10.8 L 8.4,116.3 L 7.5,117.2 v 2.7 H 5.7 L 5.6,111.6 z"/>
			<path fill="#1A2B6B" d="M 16.1,111.6 H 18.2 L 21.1,119.9 H 19.3 L 18.8,118.3 H 15.7 L 15.2,119.9 H 13.3 L 15.9,111.6 H 16.1 z M 16.1,116.9 h 2.2 L 17.2,113.5 L 16.1,116.9 z"/>
			<path fill="#1A2B6B" d="M 25.8,119.9 H 22.4 V 111.6 H 25.8 C 28,111.6 29.4,112.7 29.4,115.6 S 28.3,119.9 25.8,119.9 z M 25.6,113 H 24 V 118.4 H 25.6 c 1.4,0 2.2,-0.8 2.2,-2.7 C 27.7,113.8 27,113 25.6,113 z"/>
			<path fill="#1A2B6B" d="M 39.8,116.5 C 39.3,117 38.6,117.2 37.6,117.2 H 35.8 V 120 H 33.9 V 111.6 h 3.5 C 38.4,111.6 39.7,112.2 39.7,114.2 C 39.8,115.4 39.6,116.1 39.1,116.5 H 39.8 z M 38.2,113.4 C 37.9,113.1 37.6,113 37.2,113 H 35.5 v 2.5 H 37.1 C 37.9,115.5 38.5,115.2 38.5,114.2 C 38.5,113.8 38.4,113.5 38.2,113.4 z"/>
			<path fill="#1A2B6B" d="M 47.4,116.8 C 47.4,118.4 46.4,120.1 44.2,120.1 s -3.2,-1.5 -3.2,-3.3 C 41,115.2 42,113.6 44.1,113.6 C 46.2,113.5 47.5,115 47.4,116.8 z m -4.7,0 C 42.7,117.6 43,118.7 44.2,118.7 C 45.5,118.7 45.8,117.8 45.8,116.8 S 45.5,115 44.3,115 C 43.1,115 42.7,115.7 42.7,116.8 z"/>
			<polygon fill="#1A2B6B" points="48,113.8 49.6,113.8 50.6,118.3 51.6,113.8 53.3,113.8 54.2,118.3 55.3,113.8       57,113.8 55.3,119.9 53.6,119.9 52.6,115.4 51.6,119.9 49.9,119.9     "/>
			<path fill="#1A2B6B" d="M 63.4,118 C 62.9,119.5 61.8,120 60.6,120 C 58.7,120 57.5,119 57.5,116.6 c 0,-0.8 0.3,-3 3,-3 S 63.2,114.7 63.3,117.2 H 59 C 59,118.4 59.7,118.8 60.5,118.8 S 61.3,118.5 61.6,118 L 63.4,118 z M 61.8,116.2 C 61.6,115 61,115 60.6,115 C 59.5,115 59.3,116 59.2,116.2 H 61.8 z"/>
				<path fill="#1A2B6B" d="M 64.7,113.8 h 1.6 V 115 C 66.6,114.3 67,113.7 67.8,113.7 h 0.4 V 115.4 H 67.6 C 67,115.4 66.2,115.7 66.2,116.9 V 120 H 64.6 L 64.7,113.8 z"/>
			<path fill="#1A2B6B" d="M 79.2,119.9 L 78.5,119 C 77.6,119.6 77.2,120 76,120 C 74.6,120 72.8,119.4 72.9,117.5 C 73,115.6 74.4,115.4 74.6,115.2 C 74.2,114.7 73.9,114.2 73.9,113.4 C 73.9,112 75.1,111.5 76,111.6 C 77.4,111.6 78.1,112.4 77.9,113.6 C 77.8,115 76.5,115.4 76.4,115.5 L 77.8,117.1 C 78.1,116.8 78.4,116 78.4,115.7 H 79.7 C 79.7,116.5 79.3,117.5 78.9,118.1 L 80.4,119.9 H 78.5 H 79.2 z M 75.4,116.2 C 75,116.5 74.5,117 74.5,117.6 C 74.5,118.2 75.2,118.6 75.9,118.6 S 76.8,118.3 77.2,118 L 75.4,116.2 z M 76.1,112.7 C 75.7,112.7 75.4,113 75.3,113.4 C 75.3,113.8 75.6,114.2 75.8,114.5 C 76.2,114.3 76.7,113.8 76.7,113.4 S 76.5,112.7 76.1,112.7 z"/>
			<path fill="#1A2B6B" d="M 89.3,114.3 C 89.1,113.7 88.7,112.8 87.3,112.8 S 85,113.9 85,116 C 85,117.4 85.6,118.6 87.1,118.6 C 88.9,118.6 89.1,117.2 89.2,117 H 90.9 C 90.9,118.3 89.8,120 87.3,120 C 84.9,120 83.4,118.6 83.4,115.8 C 83.4,113 85,111.3 87.1,111.3 C 89.6,111.3 90.8,113 90.9,114.3 H 89.3 z"/>
			<path fill="#1A2B6B" d="M 97.9,116.8 C 97.9,118.4 97,120 94.8,120 S 92,118.5 91.8,116.8 C 91.8,115 92.8,113.5 94.9,113.5 C 97,113.5 98.1,115 97.9,116.8 z m -4.6,0 C 93.3,117.6 93.5,118.7 94.8,118.7 C 96.1,118.7 96.4,117.8 96.4,116.8 S 96.1,115 94.9,115 C 93.7,115 93.3,115.7 93.3,116.8 z"/>
			<path fill="#1A2B6B" d="M 102.6,115 C 101.4,115 101,115.6 101,116.8 V 120 H 99.3 V 113.8 H 100.8 V 114.6 C 101.1,114 102,113.6 102.8,113.6 C 104.6,113.6 105,114.9 105,115.8 V 119.9 H 103.4 V 116.4 C 103.4,115.5 103.3,115 102.4,115 H 102.6 z"/>
				<path fill="#1A2B6B" d="M 106,113.8 H 106.8 V 112.2 H 108.4 V 113.8 H 109.4 V 115 H 108.4 v 3.4 C 108.4,118.7 108.5,118.7 109.1,118.7 H 109.4 V 119.9 H 108.5 C 107,119.9 106.8,119.4 106.8,118.6 V 115 H 106 V 113.8 z"/>
			<path fill="#1A2B6B" d="M 110.4,113.8 H 112 V 115 C 112.4,114.3 112.7,113.8 113.6,113.7 h 0.4 V 115.4 H 113.4 C 112.7,115.4 112,115.7 112,116.9 V 120 H 110.4 V 113.8 z"/>
			<path fill="#1A2B6B" d="M 119.9,118.8 C 119.9,119.5 120,119.7 120.3,119.7 V 120 H 118.5 L 118.4,119.2 C 117.9,119.7 117.3,120.1 116.4,120.1 C 116,120.1 114.6,119.9 114.6,118.4 C 114.6,117 115.7,116.4 117,116.3 C 118.3,116.2 118.4,116.1 118.4,115.7 C 118.4,115.2 117.9,115 117.4,115 C 116.3,115 116.3,115.5 116.3,115.8 H 114.8 C 115,114 116.2,113.7 117.5,113.7 C 118.4,113.7 120,114 120,115.6 L 119.9,118.8 L 119.9,118.8 z M 118.4,117 C 118,117.3 117.9,117.3 117,117.4 C 116.3,117.5 116,117.8 116,118.4 C 116,119 116.4,119 116.7,119 S 118.4,118.7 118.4,117.4 V 117 z"/>
					<path fill="#1A2B6B" d="M 126.8,117.6 C 126.8,118.3 126.3,120 124.1,120 C 121.9,120 121.2,118.4 121.3,116.9 C 121.3,114.7 122.3,113.6 124,113.6 C 124.9,113.6 126.6,114.1 126.8,116 H 125.2 C 125.1,115.6 124.9,115 124.1,115 C 123.1,115 122.9,116.1 122.9,116.8 C 122.9,117.4 122.8,118.7 124.1,118.7 C 124.9,118.7 125.2,117.9 125.2,117.6 H 126.8 z"/>
			<path fill="#1A2B6B" d="M 127.5,113.8 H 128.3 V 112.2 H 129.9 V 113.8 H 130.9 V 115 H 129.9 v 3.4 C 129.9,118.7 130.1,118.7 130.7,118.7 H 130.9 V 119.9 H 130 C 128.5,119.9 128.3,119.4 128.3,118.6 V 115 H 127.5 V 113.8 z"/>
			<path fill="#1A2B6B" d="M 133.7,113 H 132.1 V 111.5 H 133.7 V 113 z M 133.7,113.8 V 119.9 H 132.1 V 113.8 H 133.7 z"/>
						<path fill="#1A2B6B" d="M 138.5,115 C 137.3,115 136.9,115.6 136.9,116.8 V 120 H 135.3 V 113.8 H 136.8 V 114.6 C 137.2,114 138,113.6 138.9,113.6 C 140.6,113.6 141.2,115 141.1,115.8 V 119.9 H 139.4 V 116.4 C 139.4,115.5 139.1,115 138.2,115 H 138.5 z"/>
					<path fill="#1A2B6B" d="M 148.5,113.8 V 119.5 C 148.5,120.6 148.3,122.4 145.6,122.4 C 144.4,122.4 142.9,122 142.8,120.6 H 144.5 C 144.5,120.9 144.8,121.2 145.6,121.2 C 146.9,121.2 146.9,120.4 146.9,119.5 V 119 C 146.7,119.4 146.3,119.9 145.2,119.9 C 143.8,119.9 142.7,118.8 142.7,116.8 C 142.7,114.8 143.8,113.7 145.1,113.6 C 146.2,113.6 146.8,114.3 147,114.6 L 147.1,113.8 H 148.5 z M 145.6,118.6 C 146.7,118.6 146.9,117.5 146.9,116.8 C 146.9,115.9 146.6,115 145.5,115 C 144.9,115 144.2,115.5 144.2,116.9 C 144.2,117.6 144.5,118.6 145.5,118.6 H 145.6 z"/>
					<path fill="#1A2B6B" d="M 158.5,114.3 C 158.4,113.7 157.8,112.8 156.5,112.8 S 154.5,113.9 154.4,115.8 C 154.4,117.2 155,118.5 156.5,118.5 C 158.1,118.5 158.5,117.1 158.6,116.9 H 160.3 C 160.2,118.2 159.2,119.9 156.7,119.9 C 154.4,119.9 153,118.4 152.8,115.7 C 152.8,113 154.2,111.3 156.5,111.3 C 159,111.3 160.1,113 160.2,114.2 L 158.5,114.3 L 158.5,114.3 z"/>
			<path fill="#1A2B6B" d="M 167.4,116.8 C 167.4,118.4 166.5,120 164.3,120 S 161.2,118.5 161.2,116.9 S 162.1,113.6 164.2,113.6 S 167.5,115 167.4,116.8 z M 162.8,116.8 C 162.7,117.6 163.1,118.7 164.3,118.7 S 165.8,117.8 165.8,116.8 S 165.6,115 164.4,115 C 163.1,115 162.8,115.7 162.8,116.8 z"/>
					<path fill="#1A2B6B" d="M 170.4,119 C 170.4,119.5 170.1,120 169.6,120 S 168.7,119.6 168.7,119.2 C 168.7,118.7 169,118.3 169.5,118.3 C 169.9,118.3 170.4,118.6 170.4,119 z"/>
			<path fill="#1A2B6B" d="M 176.8,118.4 H 180.8 V 119.9 H 175.1 V 111.6 H 176.8 V 118.4 z"/>
			<path fill="#1A2B6B" d="M 181.4,113.8 H 182.2 V 112.2 H 183.8 V 113.8 H 184.6 V 115 H 183.8 V 118.4 C 183.8,118.7 184,118.7 184.6,118.7 V 119.9 H 183.7 C 182.3,119.9 182.1,119.4 182.1,118.6 V 115 H 181.3 L 181.4,113.8 L 181.4,113.8 z"/>
			<path fill="#1A2B6B" d="M 191.8,119.9 H 190.2 L 190.1,119.2 C 189.7,119.7 189.1,120.1 188.3,120.1 C 186.6,120.1 185.8,118.6 185.8,116.8 C 185.8,114.7 186.9,113.6 188.2,113.7 C 189.3,113.7 189.7,114.3 190,114.6 V 111.6 H 191.7 L 191.8,119.9 L 191.8,119.9 z M 188.6,115 C 187.6,115 187.3,116 187.2,116.9 C 187.2,117.6 187.6,118.7 188.6,118.7 C 189.6,118.7 190,117.8 190,116.9 C 190.1,116.1 189.9,115 188.6,115 z"/>
			</g>
	<g>
		<path fill="#99F36C" d="M 7.4,106.6 C 5.9,106.6 5,105.5 5,103.8 C 5,101.9 6.1,100.7 7.5,100.7 C 9.2,100.7 10.1,101.8 10.2,103.6 C 10.4,105.5 9,106.6 7.4,106.6 L 7.4,106.6 z M 6.4,98.3 H 8 V 100 H 6.4 V 98.3 z M 7.5,102.4 C 6.9,102.4 6.7,103 6.7,103.6 C 6.7,104.4 7,105 7.6,105 C 8.2,105 8.4,104.4 8.3,103.7 C 8.3,102.9 8.1,102.4 7.5,102.4 L 7.5,102.4 z M 7.8,98.3 H 9.1 V 100 H 7.7 L 7.8,98.3 z"/>
		<path fill="#99F36C" d="M 16.1,106.6 H 11.7 C 11.5,106.6 11.5,106.4 11.5,105.9 V 104.9 H 15.4 V 104 C 15.4,103.1 15.1,102.8 14.2,102.8 H 11.9 V 101.5 C 11.9,101.1 12.1,101 12.4,101 H 14.4 C 16.4,101 17.2,101.8 17.2,103.8 V 106.3 L 17,106.6 H 16.1 z"/>
		<path fill="#99F36C" d="M 19.9,107.3 H 21.4 C 22.3,107.3 22.5,107 22.5,106.6 h -0.8 C 19.7,106.6 18.4,105.5 18.5,103.6 C 18.5,101.9 19.7,100.6 21.4,100.6 S 24.2,101.8 24.2,103.5 V 106.2 C 24.2,108.4 23.6,109.2 21.6,109.2 H 19.9 C 19.7,109.2 19.7,109.1 19.7,108.6 V 107.6 C 19.7,107.4 19.8,107.3 19.9,107.3 z M 20.2,103.6 C 20.2,104.5 20.7,105 21.5,105 H 22.5 V 103.6 C 22.5,102.8 22.1,102.4 21.5,102.4 S 20.2,102.9 20.2,103.6 z"/>
		<path fill="#99F36C" d="M 39.6,106.6 H 25.9 C 25.6,106.6 25.6,106.5 25.6,106 V 105 H 30 V 104 C 30,103.1 29.6,102.8 28.7,102.8 H 26.4 V 101.5 C 26.4,101 26.6,100.9 27,101 H 29 C 30.9,101 31.7,101.8 31.7,103.5 V 104.9 H 36.4 C 36.5,102.8 35.4,102.4 33.6,102.4 L 33.3,102.1 V 101 C 33.3,100.9 33.4,100.6 33.6,100.6 C 37.1,100.5 38.4,102.4 38.2,105 H 39.6 C 39.5,105 39.6,106.6 39.6,106.6 z"/>
		<path fill="#99F36C" d="M 45.7,105.9 C 45.3,106.4 44.6,106.6 43.8,106.6 C 43.2,106.6 42.5,106.4 42.1,106 C 41.8,106.5 41.4,106.6 40.6,106.6 H 39.6 V 105 L 40,104.9 C 40.4,104.9 40.5,104.8 40.6,104.4 V 103.6 C 40.6,101.9 41.6,100.6 43.4,100.6 S 46,101.8 46,103.6 C 46,104.6 46.4,104.9 47.2,104.9 H 47.7 V 106.6 H 47 C 46.5,106.6 46.1,106.4 45.7,105.9 z M 42.4,103.6 C 42.4,104.5 42.7,105 43.4,105 S 44.3,104.6 44.3,103.6 S 43.9,102.4 43.5,102.4 S 42.4,102.9 42.4,103.6 z"/>
		<path fill="#99F36C" d="M 46.9,106.6 V 105 H 48.4 V 98.4 C 48.4,98.3 48.6,98.2 48.9,98.2 H 50.1 C 50.3,98.2 50.3,98.3 50.3,98.6 V 106.3 L 50.1,106.6 H 46.9 L 46.9,106.6 z"/>
				<path fill="#99F36C" d="M 51.8,98.4 C 51.8,98.3 51.9,98.2 52.3,98.2 H 53.5 C 53.8,98.2 53.8,98.3 53.8,98.6 V 106.6 H 52.2 C 51.9,106.6 51.8,106.6 51.8,106.4 V 98.4 z"/>
		<path fill="#99F36C" d="M 61.2,106.6 C 59.6,106.6 58.8,106.2 58.8,104.6 V 101.6 H 60.3 C 60.4,101.6 60.6,101.6 60.6,101.9 V 104.4 C 60.6,104.9 61,105 61.4,105 H 65.7 V 101.2 C 65.7,101.1 65.8,101 66.2,101 H 67.8 V 106.6 L 61.1,106.6 L 61.2,106.6 z M 60.9,98.3 H 62.2 V 100 H 60.9 V 98.3 z M 62.7,98.3 H 64.1 V 100 H 62.8 L 62.7,98.3 z"/>
		<path fill="#99F36C" d="M 68.5,105.7 L 68.6,105 H 70.1 V 100.5 C 70.1,100.4 70.4,100.4 70.6,100.4 H 72 L 72,105 H 73.5 V 98.4 C 73.5,98.2 73.7,98.2 73.9,98.2 H 75.3 V 106.4 L 75.1,106.6 H 68.7 C 68.6,106.6 68.5,106.4 68.5,105.7 L 68.5,105.7 z"/>
		<path fill="#99F36C" d="M 78.3,107.3 H 79.8 C 80.8,107.3 80.9,107 80.9,106.6 L 80.1,106.6 C 78.1,106.6 76.8,105.6 77,103.6 C 77,101.9 78.2,100.6 79.8,100.6 S 82.6,101.8 82.6,103.5 V 106.2 C 82.6,108.3 82,109.2 80.1,109.2 H 78.4 C 78.1,109.2 78.2,109.1 78.2,108.6 V 107.6 C 78.1,107.4 78.2,107.4 78.4,107.4 L 78.3,107.3 z M 78.7,103.6 C 78.7,104.5 79.1,105 79.9,105 H 80.8 V 103.6 C 80.8,102.9 80.5,102.4 79.8,102.4 S 78.7,102.9 78.7,103.6 z"/>
		<path fill="#99F36C" d="M 84.1,98.4 C 84.1,98.3 84.4,98.2 84.6,98.2 H 85.8 C 86.1,98.2 86.2,98.3 86.2,98.6 V 105 H 88 C 87.7,104.9 87.7,104.4 87.7,103.6 C 87.7,102 88.7,100.6 90.5,100.6 S 93.3,101.8 93.2,103.6 V 105 H 95 L 95,106.6 H 84.7 C 84.4,106.6 84.2,106.6 84.2,106.4 L 84.1,98.4 z M 91.2,105 L 91.2,103.6 C 91.2,102.7 91.1,102.4 90.4,102.4 S 89.1,102.9 89.3,103.6 C 89.3,104.5 89.7,105 90.4,105 L 91.2,105 z M 89,98.3 H 90.5 V 100 H 89 C 88.8,100 88.8,99.8 88.8,99.5 V 98.7 C 88.8,98.4 88.9,98.3 89,98.3 L 89,98.3 z M 90.8,98.3 H 92.1 V 100 H 90.8 V 98.3 z"/>
		<path fill="#99F36C" d="M 100.7,105.9 C 100.4,106.3 99.7,106.6 98.9,106.6 C 98.2,106.6 97.6,106.4 97.2,106 C 97,106.4 96.5,106.6 95.7,106.6 H 94.7 V 104.9 H 95 C 95.4,104.9 95.6,104.8 95.7,104.2 V 103.6 C 95.7,101.8 96.6,100.6 98.5,100.6 S 101.2,101.8 101.2,103.6 C 101.2,104.5 101.5,105 102.4,105 L 103,105 V 106.6 H 102 C 101.6,106.6 101.2,106.4 100.8,105.9 L 100.7,105.9 z M 97.4,103.6 C 97.4,104.5 97.7,105 98.4,105 S 99.4,104.5 99.4,103.6 S 99.1,102.4 98.5,102.4 C 98,102.4 97.4,102.9 97.4,103.6 z"/>
		<path fill="#99F36C" d="M 102.6,104.9 H 103.7 V 98.4 C 103.7,98.3 104,98.2 104.2,98.2 H 105.7 V 106.3 L 105.6,106.6 H 102.5 L 102.6,105 L 102.6,104.9 z"/>
		<path fill="#99F36C" d="M 107.1,98.4 C 107.1,98.3 107.3,98.2 107.5,98.2 H 108.7 C 109,98.2 109,98.3 109,98.6 V 106.6 H 107.4 C 107.2,106.6 107.1,106.6 107.1,106.4 V 98.4 z"/>
		<path fill="#99F36C" d="M 112,107.3 H 113.4 C 114.4,107.3 114.5,107 114.6,106.6 L 113.8,106.6 C 111.8,106.6 110.6,105.6 110.7,103.6 C 110.7,102 111.8,100.6 113.6,100.6 S 116.4,101.8 116.4,103.6 V 106.2 C 116.4,108.4 115.8,109.2 114,109.2 H 112.2 C 112,109.2 112,109.1 112,108.6 V 107.6 C 111.8,107.4 112,107.4 112,107.4 L 112,107.3 z M 112.5,103.6 C 112.5,104.5 112.9,105 113.6,105 H 114.5 V 103.6 C 114.5,102.9 114.1,102.4 113.5,102.4 S 112.4,102.9 112.5,103.6 z"/>
		<path fill="#99F36C" d="M 122.6,106.6 C 120.9,106.6 120,105.5 120,103.8 C 120.1,102 121.1,100.6 122.6,100.6 C 124.4,100.6 125.5,101.6 125.6,103.6 V 105 H 127.1 V 106.6 H 122.6 z M 121.5,98.2 H 122.9 V 100 H 121.5 C 121.2,100 121.2,99.7 121.2,99.5 V 98.7 C 121.2,98.3 121.3,98.3 121.6,98.3 L 121.5,98.2 z M 123.6,105 V 103.6 C 123.6,102.9 123.4,102.4 122.6,102.4 S 121.6,103.1 121.6,103.6 C 121.6,104.1 121.9,105 122.9,105 C 123,105.1 123.6,105 123.6,105 z M 123.4,98.2 H 124.6 V 100 H 123.3 V 98.3 L 123.4,98.2 z"/>
		<path fill="#99F36C" d="M 129.9,105.9 C 129.5,106.4 129.1,106.6 128.4,106.6 H 126.7 V 105 H 127.8 C 128.2,105 128.5,104.9 128.5,104.4 V 98.4 C 128.5,98.2 128.5,98.2 129,98.2 H 130.1 L 130.1,104.5 C 130.2,104.8 130.6,105 131.1,105 H 131.6 V 106.6 H 131.1 C 130.6,106.5 130.1,106.4 129.9,105.9 L 129.9,105.9 z"/>
		<path fill="#99F36C" d="M 130.9,106.6 V 105 H 132.2 L 132.2,101.2 C 132.2,100.9 132.4,100.9 132.6,100.9 H 134 V 106.6 H 130.9 L 130.9,106.6 z M 131.1,107.6 H 132.6 V 109.2 H 131 L 131.1,107.6 z M 132.9,107.6 H 134.4 V 109.2 H 132.9 V 107.6 z"/>
		<path fill="#99F36C" d="M 143.1,106.6 H 135.4 L 135,106.4 V 105.4 L 135.1,105 H 139.1 V 104.4 C 139,103.1 138.7,102.9 137.9,102.9 H 135.8 L 135.6,102.6 V 101.4 L 135.8,101 H 137.9 C 139.7,101 141.1,101.5 141,103.6 V 105 H 143 L 143,106.6 L 143.1,106.6 z"/>
		<path fill="#99F36C" d="M 146,105.9 C 145.7,106.4 145.3,106.6 144.6,106.6 H 142.6 V 104.9 H 143.5 C 144,104.9 143.9,104.8 143.9,104.4 V 101.4 C 143.9,101 144.1,100.9 144.4,101 H 145.8 V 104.5 C 145.8,104.8 146.2,105 146.6,105 H 147.1 V 106.6 H 146.7 C 146.6,106.6 146.2,106.4 146,105.9 L 146,105.9 z M 143.7,107.6 H 145.3 V 109.2 H 143.7 V 107.6 z"/>
		<path fill="#99F36C" d="M 146.4,104.9 H 147.4 V 98.6 C 147.4,98.4 147.5,98.2 147.9,98.2 H 149.4 L 149.4,106.4 L 149.3,106.6 H 146.4 L 146.4,105 L 146.4,104.9 z"/>
		<path fill="#99F36C" d="M 150.8,98.4 C 150.8,98.3 150.8,98.2 151.2,98.2 H 152.5 C 152.6,98.2 152.7,98.3 152.7,98.6 V 106.4 C 152.7,106.6 152.6,106.6 152.4,106.6 H 151.1 C 150.8,106.7 150.8,106.6 150.8,106.4 V 98.4 z"/>
		<path fill="#99F36C" d="M 159.1,106.6 C 157.6,106.6 156.6,105.4 156.7,103.9 C 156.7,102 157.8,100.6 159.3,100.7 C 161.1,100.6 162.3,101.6 162.3,103.6 V 105 H 164 V 106.6 L 159.1,106.6 z M 158.1,98.2 H 159.6 V 100 H 158.1 C 157.8,100 157.8,99.7 157.8,99.5 V 98.7 C 157.8,98.4 157.9,98.3 158.1,98.3 L 158.1,98.2 z M 160.5,105 V 103.6 C 160.5,102.8 160.2,102.4 159.5,102.4 C 158.8,102.4 158.5,102.9 158.5,103.6 C 158.5,104.4 158.9,104.9 159.5,105 L 160.5,105 L 160.5,105 z M 160.1,98.2 H 161.5 V 100 H 160.1 L 160.1,98.2 z"/>
		<path fill="#99F36C" d="M 163.6,106.6 L 163.6,104.9 H 164.9 C 164.6,104.6 164.7,104.2 164.7,103.6 C 164.7,101.9 165.7,100.6 167.6,100.6 C 169.5,100.6 170.4,101.8 170.4,103.6 V 106.4 L 170.3,106.7 L 163.6,106.6 z M 166.1,98.2 H 167.5 V 100 H 166 C 165.8,100 165.8,99.7 165.8,99.5 V 98.7 C 165.8,98.4 165.8,98.3 166.2,98.3 L 166.1,98.2 z M 168.5,105 L 168.5,103.6 C 168.5,103 168.5,102.4 167.5,102.4 C 166.8,102.4 166.5,102.9 166.5,103.6 C 166.5,104.3 166.8,105 167.6,105 L 168.5,105 z M 167.9,98.2 H 169.3 V 100 H 167.9 V 98.2 z"/>
		<path fill="#99F36C" d="M 172,98.3 H 173.5 C 173.8,98.3 173.8,98.3 173.8,98.6 L 173.8,105 H 175.7 L 175.8,106.6 H 172.2 C 172,106.7 172,106.6 172,106.4 L 172,98.3 z"/>
		<path fill="#99F36C" d="M 186.1,105.9 C 185.6,106.5 185.3,106.6 184.6,106.6 H 175.4 L 175.8,105 H 176.4 V 98.6 C 176.4,98.3 176.4,98.2 176.7,98.3 H 177.9 C 178.2,98.3 178.4,98.3 178.4,98.6 V 101.6 C 179.4,101.1 180.6,100.7 181.4,100.7 C 183.4,100.8 184,102.4 184,105 H 185 V 106.6 L 186.1,105.9 z M 182.1,105 V 104.8 C 182,103.1 181.7,102.6 180.4,102.6 L 178.2,103.4 V 105 L 182.1,105 z"/>
		<path fill="#99F36C" d="M 187.6,105.9 C 187.2,106.6 186.7,106.6 186.2,106.6 H 185.4 L 185.4,105 H 185.7 C 186.1,105 186.3,104.9 186.3,104.4 V 98.6 C 186.3,98.3 186.6,98.3 186.8,98.3 H 188.2 L 188.2,104.5 C 188.3,104.9 188.6,105 189.1,105 H 189.7 L 189.7,106.6 H 188.7 C 188.4,106.6 188,106.4 187.6,105.9 L 187.6,105.9 z"/>
		<path fill="#99F36C" d="M 189.2,104.9 H 189.7 V 98.6 C 189.7,98.4 189.9,98.3 190.1,98.3 H 191.7 V 106.5 C 191.7,106.7 191.6,106.7 191.5,106.7 H 189.1 L 189.1,105 L 189.2,104.9 z"/>
	</g>
	<path fill="#1A2B6B" d="M 15.2,70.4 C 11,70.4 7.6,73.4 7.6,78 C 7.7,82.5 10.2,85.1 15.2,85.1 H 28 C 30.4,85.1 31.2,84.7 32.1,83.8 C 33.1,84.9 34,85.1 35.6,85.1 H 41.9 C 43.1,85.1 42.9,85 42.9,83.7 V 72.6 C 42.9,71.6 42.8,71.6 42,71.6 H 38.6 C 37.6,71.6 37.8,72 37.8,72.4 V 80.8 H 35.2 C 33.7,80.8 32.8,80.5 32.8,79.6 V 72.5 C 32.8,71.7 32.6,71.6 32.1,71.7 L 28.4,71.6 C 28,71.8 27.9,71.8 27.9,72.6 V 79.9 C 27.9,80.7 27.7,81 26.6,81 H 22.5 V 77.5 C 22.3,74 19.8,70.4 15.2,70.4 M 17.2,80.8 H 15.8 C 13.4,80.8 12.4,79.6 12.4,77.7 C 12.4,76.1 13.2,74.4 15.1,74.5 C 16.6,74.5 17.4,76.1 17.4,77.8 V 80.9 L 17.2,80.8 z M 11,64.4 C 10.4,64.4 10.6,65 10.6,65.3 V 67.8 C 10.7,68.4 10.7,68.4 11.1,68.4 H 13.8 C 14.4,68.4 14.5,68.2 14.5,67.6 V 64.9 C 14.5,64.5 14.2,64.4 13.8,64.4 L 11,64.4 z M 15.8,64.4 C 15.2,64.4 15.1,65 15.2,65.3 V 67.8 C 15.2,68.4 15.4,68.4 15.7,68.4 H 18.4 C 19,68.4 18.9,68.2 18.9,67.6 V 65.3 C 18.9,64.6 18.8,64.4 18.2,64.4 H 15.8 z M 26.3,87.4 C 25.8,87.4 25.7,87.8 25.7,88.2 V 90.7 C 25.7,91.3 25.9,91.4 26.3,91.4 H 28.9 C 29.5,91.4 29.6,91.2 29.6,90.7 V 88.2 C 29.6,87.6 29.2,87.4 28.9,87.4 C 28.9,87.4 26.3,87.4 26.3,87.4 z M 31.3,87.4 C 30.6,87.4 30.6,87.8 30.6,88.2 V 90.7 C 30.6,91.3 30.7,91.4 31.2,91.4 H 33.8 C 34.4,91.4 34.5,91.2 34.5,90.7 V 88.2 C 34.5,87.5 34.2,87.4 33.8,87.4 C 33.8,87.4 31.2,87.4 31.2,87.4 H 31.3 z M 38.2,64.6 H 36.9 C 36.6,64.6 36.6,65.1 36.6,65.3 C 36.6,66.5 36.5,67.1 37,67.1 H 43.3 C 43.8,67.1 43.8,66.7 43.7,65.6 C 43.7,64.6 43.6,64.6 43.2,64.6 H 41.2 C 39.4,64.5 39.4,62.1 41.6,62.4 C 42.4,62.4 42.6,62 42.4,61.1 C 42.4,60 42.4,60 41.4,60 C 38.6,59.9 36.8,62.4 38.1,64.6 H 38.2 z M 95.3,64.4 H 91.9 C 91.4,64.4 91.3,64.6 91.3,65.4 V 80.9 H 86.8 L 86.8,78.6 C 86.6,73.2 83.8,70.5 78.6,70.5 C 76.4,70.5 74.2,71.4 71.9,72.6 V 71.9 C 71.9,71.6 71.6,71.6 70.9,71.5 L 67.6,71.5 C 67.2,71.6 67,71.8 67,72.4 V 80.8 H 61.9 V 77.4 C 61.8,74.4 59.6,70.5 54.5,70.5 C 50.3,70.5 46.6,73.4 46.6,77.9 C 46.6,83.4 50,85.3 54,85.4 H 56.8 C 56.7,86.4 56.3,86.9 55.2,86.9 H 50.8 C 50.1,86.9 50.1,87.2 50.1,87.9 V 90.1 C 50,91 50.2,91.1 50.8,91.1 H 56 C 59.6,91.1 61.6,89.5 61.9,85.2 H 95.7 C 96.5,85.2 96.8,85.1 96.8,84.2 V 65.4 C 96.8,64.9 96.7,64.5 96.4,64.5 L 95.2,64.4 z M 57,80.8 H 55.2 C 53.3,80.8 51.6,80 51.6,77.8 C 51.5,76 52.6,74.5 54.1,74.5 C 55.8,74.5 56.8,75.7 56.8,77.6 V 80.9 L 57,80.8 z M 81.8,80.8 H 71.9 V 76.9 C 74,75.9 76.2,75 77.9,75 C 80.6,75 81.9,76.4 81.8,79.4 C 81.8,79.6 81.8,80.8 81.8,80.8 z M 76.5,64.9 L 76.5,67.6 C 76.6,68.1 76.6,68.3 77.6,68.3 H 79.6 C 80.4,68.3 80.5,68.2 80.5,67.6 L 80.5,65.2 C 80.5,64.6 80.3,64.4 79.7,64.4 H 77 C 76.6,64.4 76.5,64.6 76.5,64.9 z M 100.5,65.4 V 84 C 100.5,85.1 100.5,85.2 101.6,85.2 H 104.3 C 105.2,85.2 105.3,85.2 105.3,84.1 V 65.2 C 105.3,64.6 105.2,64.4 104.5,64.4 H 101.5 C 100.5,64.4 100.5,64.6 100.5,65.4 z M 183.4,64.4 C 182.8,64.4 182.8,64.9 182.8,65.3 V 84 C 182.8,85.1 182.8,85.2 183.9,85.2 H 186.6 C 187.6,85.2 187.8,85.2 187.8,84.3 V 65 C 187.8,64.6 187.6,64.4 187.2,64.4 L 183.5,64.4 L 183.4,64.4 z M 178.4,64.9 C 178.4,64.4 178.1,64.4 177.6,64.4 H 174.8 C 174.1,64.4 174,64.5 174,65.2 V 80.8 H 169.4 C 169.2,74 165.9,70.4 159,70.5 C 156.6,70.5 156.6,70.4 156.6,71.8 L 156.7,74 C 156.7,74.6 156.9,74.6 157.2,74.6 C 162.4,74.6 164.4,76.5 164.4,80.8 H 154.2 C 152.5,80.8 151.9,80.3 151.9,79.3 V 65 C 151.9,64.4 151.5,64.5 151.1,64.4 H 147.6 C 146.8,64.5 146.8,64.6 146.8,65.5 V 78.9 C 146.8,80.5 146.6,80.8 145.7,80.8 H 144.6 C 143.2,80.8 141.9,80.5 141.9,79.6 L 141.9,72.4 C 141.9,71.6 141.6,71.6 141.1,71.6 H 137.6 C 137,71.6 136.8,71.7 136.8,72.4 V 79.8 C 136.8,80.6 136.5,80.9 135.1,80.8 H 131.2 V 77.4 C 131.1,74 128.8,70.6 123.8,70.6 C 120,70.6 116,73.4 116,78 C 116,82.9 118.8,85.1 123.4,85.1 H 136.8 C 138.7,85.1 139.6,85 140.8,83.8 C 141.6,84.9 142.7,85.1 144.5,85.2 L 146.4,85.2 C 148.6,85.2 150,85 150.9,83.9 C 152.1,85.1 153,85.2 154.4,85.2 H 177.9 C 178.5,85.1 178.6,85 178.6,84.2 C 178.6,84.2 178.6,65 178.6,65 M 126,80.8 H 124 C 121.7,80.7 120.7,79.6 120.7,77.7 C 120.7,75.9 121.8,74.5 123.2,74.5 C 124.6,74.5 125.9,75.6 125.9,77.8 L 126,80.8 z M 118.9,64.9 V 67.5 C 118.9,68.3 119.1,68.3 119.5,68.3 H 122.1 C 122.6,68.3 122.7,68.3 122.7,67.6 L 122.7,64.9 C 122.7,64.6 122.5,64.4 122,64.4 H 119.6 C 119.1,64.4 118.9,64.4 118.9,64.9 z M 124.1,64.9 L 124.1,67.6 C 124.1,68.2 124.2,68.3 124.7,68.3 H 127.2 C 127.5,68.3 127.8,68.1 127.8,67.6 V 65.2 C 127.8,64.5 127.6,64.4 127.2,64.4 H 124.7 C 124.4,64.4 124.1,64.6 124.1,64.9 z M 158.2,65 V 67.6 C 158.1,68.2 158.4,68.3 158.7,68.3 H 161.8 C 162.2,68.3 162.4,68.1 162.4,67.6 V 65 C 162.4,64.5 162.2,64.4 162,64.4 H 158.7 C 158.3,64.4 158.2,64.6 158.1,65 H 158.2 z M 135.3,88 V 90.6 C 135.3,91.2 135.5,91.4 135.9,91.4 H 138.5 C 139,91.4 138.9,91.2 138.9,90.7 V 88 C 138.9,87.6 138.6,87.4 138.2,87.4 H 135.9 C 135.5,87.4 135.2,87.6 135.2,88 H 135.3 z M 139.7,88 V 90.6 C 139.7,91.2 139.8,91.4 140.4,91.4 H 142.9 C 143.4,91.4 143.5,91.2 143.5,90.7 V 88 C 143.5,87.6 143.3,87.4 142.9,87.4 H 140.5 C 139.9,87.4 139.7,87.6 139.7,88 z"/>
		</g>
</svg>